<svg version="1.1" id="Layer_1" xmlns="http://www.w3.org/2000/svg" xmlns:xlink="http://www.w3.org/1999/xlink" x="0px" y="0px"
	 width="100%" viewBox="0 0 234 187" enable-background="new 0 0 234 187" xml:space="preserve">
<path fill="#FAFAFA" opacity="1.000000" stroke="none" 
	d="
M167.000000,188.000000 
	C111.333336,188.000000 56.166672,188.000000 1.000007,188.000000 
	C1.000005,125.666672 1.000005,63.333347 1.000003,1.000016 
	C78.999992,1.000010 156.999985,1.000010 234.999969,1.000005 
	C234.999985,63.333317 234.999985,125.666634 235.000000,187.999969 
	C212.500000,188.000000 190.000000,188.000000 167.000000,188.000000 
M152.082397,145.565445 
	C153.715302,141.975189 156.658508,138.416580 156.746140,134.789001 
	C157.064468,121.610512 159.292267,108.120186 152.569336,95.581169 
	C151.627808,93.825096 151.798584,91.131462 152.246674,89.041672 
	C153.215912,84.521347 151.518341,79.954193 147.544769,78.730789 
	C143.721741,77.553741 140.229279,78.244743 137.981903,81.994911 
	C135.724442,85.761909 136.979965,89.869873 140.717438,92.949471 
	C142.527573,94.440994 144.004013,96.501854 145.188171,98.560043 
	C150.066147,107.038536 149.738113,116.385628 149.612579,125.745369 
	C149.427017,139.580765 146.920731,142.700729 133.464828,144.835693 
	C128.218582,145.668076 125.685799,148.730286 127.345650,153.529602 
	C130.553940,162.806000 134.233383,171.927444 138.023834,180.984940 
	C138.531189,182.197296 140.818329,182.664825 142.281296,183.477264 
	C142.901367,181.799866 144.172607,180.048386 143.992111,178.462082 
	C143.706345,175.950867 142.448486,173.550293 141.505112,170.822830 
	C143.429031,170.227249 144.830582,169.810623 146.221207,169.360229 
	C160.417633,164.762314 169.669327,155.912872 171.573227,140.439865 
	C171.772018,138.824265 173.434601,137.064087 174.875061,135.976028 
	C189.799545,124.702682 191.345016,104.879829 178.360443,91.399574 
	C177.106476,90.097733 176.022827,88.121155 175.857574,86.363983 
	C174.761749,74.711998 168.643570,67.089935 158.012268,62.564888 
	C155.814117,61.629272 153.510132,59.792328 152.353683,57.748959 
	C145.689774,45.974182 131.639481,40.109131 119.010796,44.858341 
	C115.136726,46.315247 112.710068,45.611633 109.549049,43.567924 
	C98.092087,36.160603 83.937500,38.033928 74.223869,47.469147 
	C71.892685,49.733517 68.667076,51.481731 65.538071,52.446087 
	C55.123840,55.655743 47.886898,61.886486 45.767670,72.772400 
	C45.104061,76.181190 43.746994,78.360786 41.245461,80.545479 
	C30.414648,90.004478 26.644768,105.075714 31.528877,118.300735 
	C36.449432,131.624435 48.699085,141.249496 62.117859,140.917542 
	C69.787033,140.727814 76.072342,142.668961 81.831062,147.402939 
	C83.752495,148.982468 85.796021,150.615753 88.063889,151.528015 
	C92.317169,153.238922 96.730507,155.425751 101.157707,155.624695 
	C107.718681,155.919525 111.856125,158.645157 114.445351,164.301529 
	C116.801201,169.448044 118.805573,174.772614 121.462234,179.753418 
	C122.219688,181.173523 124.711746,181.668427 126.408371,182.587601 
	C127.041489,180.747147 128.656204,178.550476 128.139725,177.127213 
	C125.760712,170.571487 123.247719,163.978790 119.901779,157.882919 
	C116.341629,151.396774 110.640793,147.836578 102.728409,147.771820 
	C99.038261,147.741638 95.362549,145.945938 92.691872,145.223953 
	C93.264717,139.050644 94.029633,134.327744 94.081543,129.597000 
	C94.246056,114.601616 94.018463,99.601349 94.253304,84.607834 
	C94.299423,81.662834 95.358147,78.565155 96.617203,75.847000 
	C98.529518,71.718498 97.901016,67.336319 94.357292,64.661598 
	C91.049202,62.164734 86.904488,62.457958 83.922188,65.399834 
	C80.891838,68.389114 80.653488,73.288406 83.351265,76.793365 
	C84.246262,77.956146 85.825935,79.129631 85.858604,80.331757 
	C86.081497,88.533813 85.975365,96.744812 85.975365,104.952919 
	C85.546967,105.071167 85.118568,105.189415 84.690163,105.307663 
	C80.767082,100.091660 74.077225,97.330597 72.907150,89.551376 
	C72.315567,85.618225 68.606819,83.643761 64.430008,84.288086 
	C60.085526,84.958282 57.602364,87.866844 57.426487,92.164696 
	C57.261005,96.208649 59.101204,99.766739 63.426979,100.065140 
	C72.129883,100.665497 74.104584,108.761536 79.602837,113.161865 
	C75.147675,113.906654 71.022255,114.135506 66.941727,113.806862 
	C64.999275,113.650414 62.897030,112.774757 61.295963,111.626831 
	C57.583733,108.965248 53.334511,108.880119 50.416729,111.850861 
	C47.491199,114.829506 47.193592,119.073357 49.683918,122.300911 
	C52.463009,125.902740 56.578728,126.433739 60.753208,123.765526 
	C61.712921,123.152100 62.733791,122.186615 63.741375,122.167526 
	C71.016090,122.029747 78.294632,122.093666 86.076225,122.093666 
	C85.474129,128.156143 87.448059,133.631409 83.651787,139.555328 
	C77.593742,132.155731 69.732513,133.464188 62.128479,132.736465 
	C57.251282,132.269684 51.855515,130.373367 47.988678,127.420242 
	C33.647507,116.467873 34.398468,95.699631 48.990108,84.987793 
	C51.508453,83.139053 54.178482,81.682465 54.034767,77.659332 
	C53.691471,68.049240 60.751389,60.451752 70.545311,60.178341 
	C74.390282,60.071003 76.525124,58.696472 78.686623,55.739685 
	C84.703033,47.509655 95.702255,45.298592 104.067024,50.139221 
	C107.235840,51.972988 108.836380,54.289574 108.730507,58.181038 
	C108.485855,67.172668 108.637810,76.175552 108.658241,85.173805 
	C108.679733,94.634789 116.762527,99.767242 126.845985,95.524345 
	C124.495552,93.795258 122.778572,92.193924 120.774368,91.137558 
	C117.814545,89.577515 116.413002,87.618690 116.534401,84.056488 
	C116.812386,75.900513 116.374542,67.714340 116.829895,59.574139 
	C116.947884,57.464836 118.814461,54.560665 120.688927,53.593395 
	C129.895554,48.842571 142.035263,54.169598 145.898758,63.872204 
	C146.733109,65.967560 148.826370,68.538864 150.806625,69.037766 
	C161.477493,71.726128 166.633087,76.872505 167.783966,87.777786 
	C168.197617,91.697342 169.651108,94.455559 172.582977,97.136215 
	C182.668243,106.357330 180.688293,123.446861 168.814209,130.016983 
	C165.278214,131.973495 163.941208,134.470871 163.711197,138.350204 
	C162.998459,150.371735 154.326736,159.979813 142.350143,162.107117 
	C141.079163,162.332870 138.900848,161.655975 138.316483,160.688980 
	C136.995270,158.502640 136.407562,155.873032 135.833481,154.286087 
	C141.463150,151.351120 146.521210,148.714157 152.082397,145.565445 
M121.325462,131.781693 
	C125.208618,129.207855 129.154236,126.722244 132.954712,124.031639 
	C135.869797,121.967850 137.051086,118.638481 133.978027,116.527504 
	C126.542572,111.419807 118.604042,107.044472 110.476311,102.137268 
	C105.444084,114.733154 117.508415,115.063026 121.991570,120.592934 
	C121.150543,121.343452 120.481544,122.063713 119.696144,122.619469 
	C116.709755,124.732719 113.235184,126.386215 110.849663,129.029678 
	C109.481293,130.545990 109.857773,133.636887 109.448738,136.018936 
	C111.380959,135.901855 113.456413,136.186188 115.207497,135.561401 
	C117.191635,134.853470 118.885056,133.330765 121.325462,131.781693 
z"/>
<path fill="#292929" opacity="1.000000" stroke="none" 
	d="
M151.830841,145.821320 
	C146.521210,148.714157 141.463150,151.351120 135.833481,154.286087 
	C136.407562,155.873032 136.995270,158.502640 138.316483,160.688980 
	C138.900848,161.655975 141.079163,162.332870 142.350143,162.107117 
	C154.326736,159.979813 162.998459,150.371735 163.711197,138.350204 
	C163.941208,134.470871 165.278214,131.973495 168.814209,130.016983 
	C180.688293,123.446861 182.668243,106.357330 172.582977,97.136215 
	C169.651108,94.455559 168.197617,91.697342 167.783966,87.777786 
	C166.633087,76.872505 161.477493,71.726128 150.806625,69.037766 
	C148.826370,68.538864 146.733109,65.967560 145.898758,63.872204 
	C142.035263,54.169598 129.895554,48.842571 120.688927,53.593395 
	C118.814461,54.560665 116.947884,57.464836 116.829895,59.574139 
	C116.374542,67.714340 116.812386,75.900513 116.534401,84.056488 
	C116.413002,87.618690 117.814545,89.577515 120.774368,91.137558 
	C122.778572,92.193924 124.495552,93.795258 126.845985,95.524345 
	C116.762527,99.767242 108.679733,94.634789 108.658241,85.173805 
	C108.637810,76.175552 108.485855,67.172668 108.730507,58.181038 
	C108.836380,54.289574 107.235840,51.972988 104.067024,50.139221 
	C95.702255,45.298592 84.703033,47.509655 78.686623,55.739685 
	C76.525124,58.696472 74.390282,60.071003 70.545311,60.178341 
	C60.751389,60.451752 53.691471,68.049240 54.034767,77.659332 
	C54.178482,81.682465 51.508453,83.139053 48.990108,84.987793 
	C34.398468,95.699631 33.647507,116.467873 47.988678,127.420242 
	C51.855515,130.373367 57.251282,132.269684 62.128479,132.736465 
	C69.732513,133.464188 77.593742,132.155731 83.651787,139.555328 
	C87.448059,133.631409 85.474129,128.156143 86.076225,122.093666 
	C78.294632,122.093666 71.016090,122.029747 63.741375,122.167526 
	C62.733791,122.186615 61.712921,123.152100 60.753208,123.765526 
	C56.578728,126.433739 52.463009,125.902740 49.683918,122.300911 
	C47.193592,119.073357 47.491199,114.829506 50.416729,111.850861 
	C53.334511,108.880119 57.583733,108.965248 61.295963,111.626831 
	C62.897030,112.774757 64.999275,113.650414 66.941727,113.806862 
	C71.022255,114.135506 75.147675,113.906654 79.602837,113.161865 
	C74.104584,108.761536 72.129883,100.665497 63.426979,100.065140 
	C59.101204,99.766739 57.261005,96.208649 57.426487,92.164696 
	C57.602364,87.866844 60.085526,84.958282 64.430008,84.288086 
	C68.606819,83.643761 72.315567,85.618225 72.907150,89.551376 
	C74.077225,97.330597 80.767082,100.091660 84.690163,105.307663 
	C85.118568,105.189415 85.546967,105.071167 85.975365,104.952919 
	C85.975365,96.744812 86.081497,88.533813 85.858604,80.331757 
	C85.825935,79.129631 84.246262,77.956146 83.351265,76.793365 
	C80.653488,73.288406 80.891838,68.389114 83.922188,65.399834 
	C86.904488,62.457958 91.049202,62.164734 94.357292,64.661598 
	C97.901016,67.336319 98.529518,71.718498 96.617203,75.847000 
	C95.358147,78.565155 94.299423,81.662834 94.253304,84.607834 
	C94.018463,99.601349 94.246056,114.601616 94.081543,129.597000 
	C94.029633,134.327744 93.264717,139.050644 92.691872,145.223953 
	C95.362549,145.945938 99.038261,147.741638 102.728409,147.771820 
	C110.640793,147.836578 116.341629,151.396774 119.901779,157.882919 
	C123.247719,163.978790 125.760712,170.571487 128.139725,177.127213 
	C128.656204,178.550476 127.041489,180.747147 126.408371,182.587601 
	C124.711746,181.668427 122.219688,181.173523 121.462234,179.753418 
	C118.805573,174.772614 116.801201,169.448044 114.445351,164.301529 
	C111.856125,158.645157 107.718681,155.919525 101.157707,155.624695 
	C96.730507,155.425751 92.317169,153.238922 88.063889,151.528015 
	C85.796021,150.615753 83.752495,148.982468 81.831062,147.402939 
	C76.072342,142.668961 69.787033,140.727814 62.117859,140.917542 
	C48.699085,141.249496 36.449432,131.624435 31.528877,118.300735 
	C26.644768,105.075714 30.414648,90.004478 41.245461,80.545479 
	C43.746994,78.360786 45.104061,76.181190 45.767670,72.772400 
	C47.886898,61.886486 55.123840,55.655743 65.538071,52.446087 
	C68.667076,51.481731 71.892685,49.733517 74.223869,47.469147 
	C83.937500,38.033928 98.092087,36.160603 109.549049,43.567924 
	C112.710068,45.611633 115.136726,46.315247 119.010796,44.858341 
	C131.639481,40.109131 145.689774,45.974182 152.353683,57.748959 
	C153.510132,59.792328 155.814117,61.629272 158.012268,62.564888 
	C168.643570,67.089935 174.761749,74.711998 175.857574,86.363983 
	C176.022827,88.121155 177.106476,90.097733 178.360443,91.399574 
	C191.345016,104.879829 189.799545,124.702682 174.875061,135.976028 
	C173.434601,137.064087 171.772018,138.824265 171.573227,140.439865 
	C169.669327,155.912872 160.417633,164.762314 146.221207,169.360229 
	C144.830582,169.810623 143.429031,170.227249 141.505112,170.822830 
	C142.448486,173.550293 143.706345,175.950867 143.992111,178.462082 
	C144.172607,180.048386 142.901367,181.799866 142.281296,183.477264 
	C140.818329,182.664825 138.531189,182.197296 138.023834,180.984940 
	C134.233383,171.927444 130.553940,162.806000 127.345650,153.529602 
	C125.685799,148.730286 128.218582,145.668076 133.464828,144.835693 
	C146.920731,142.700729 149.427017,139.580765 149.612579,125.745369 
	C149.738113,116.385628 150.066147,107.038536 145.188171,98.560043 
	C144.004013,96.501854 142.527573,94.440994 140.717438,92.949471 
	C136.979965,89.869873 135.724442,85.761909 137.981903,81.994911 
	C140.229279,78.244743 143.721741,77.553741 147.544769,78.730789 
	C151.518341,79.954193 153.215912,84.521347 152.246674,89.041672 
	C151.798584,91.131462 151.627808,93.825096 152.569336,95.581169 
	C159.292267,108.120186 157.064468,121.610512 156.746140,134.789001 
	C156.658508,138.416580 153.715302,141.975189 151.830841,145.821320 
z"/>
<path fill="#2A2A2A" opacity="1.000000" stroke="none" 
	d="
M121.015167,131.972000 
	C118.885056,133.330765 117.191635,134.853470 115.207497,135.561401 
	C113.456413,136.186188 111.380959,135.901855 109.448746,136.018936 
	C109.857773,133.636887 109.481293,130.545990 110.849663,129.029678 
	C113.235184,126.386215 116.709755,124.732719 119.696144,122.619469 
	C120.481544,122.063713 121.150543,121.343452 121.991570,120.592934 
	C117.508415,115.063026 105.444084,114.733154 110.476311,102.137268 
	C118.604042,107.044472 126.542572,111.419807 133.978027,116.527504 
	C137.051086,118.638481 135.869797,121.967850 132.954712,124.031639 
	C129.154236,126.722244 125.208618,129.207855 121.015167,131.972000 
z"/>
</svg>